<svg version="1.1" id="Layer_1" xmlns="http://www.w3.org/2000/svg" xmlns:xlink="http://www.w3.org/1999/xlink" x="0px" y="0px"
	 width="100%" viewBox="0 0 512 512" enable-background="new 0 0 512 512" xml:space="preserve">
<path fill="#44AF01" opacity="1.000000" stroke="none" 
	d="
M0.999999,280.000000 
	C1.000000,264.979095 1.000000,249.958206 1.391318,234.288635 
	C3.180664,223.970917 4.241278,214.238708 6.038435,204.644455 
	C12.014901,172.738510 24.585329,143.445801 42.236053,116.332031 
	C55.890667,95.356804 72.493324,76.961899 91.631355,60.770466 
	C110.368530,44.918171 130.872986,32.042515 153.346405,22.234375 
	C175.424438,12.598804 198.257278,5.715823 222.262329,2.962424 
	C226.198135,2.510985 230.088593,1.664113 234.000000,1.000000 
	C249.020889,1.000000 264.041779,1.000000 279.711365,1.391323 
	C290.029175,3.180676 299.761200,4.242465 309.355865,6.038237 
	C341.263702,12.010225 370.552551,24.590977 397.667694,42.236790 
	C418.644928,55.888218 437.038208,72.493401 453.229614,91.631424 
	C469.081909,110.368614 481.957520,130.873077 491.765656,153.346497 
	C501.401184,175.424500 508.284210,198.257324 511.037598,222.262360 
	C511.489044,226.198151 512.335876,230.088593 513.000000,234.000000 
	C513.000000,249.020889 513.000000,264.041779 512.608643,279.711365 
	C510.819305,290.029175 509.757599,299.761292 507.961823,309.355957 
	C501.989807,341.263763 489.409058,370.552612 471.763214,397.667755 
	C458.111755,418.644989 441.506500,437.038208 422.368469,453.229614 
	C403.631317,469.081909 383.126892,481.957550 360.653534,491.765686 
	C338.575531,501.401215 315.742676,508.284149 291.737610,511.037537 
	C287.801819,511.488953 283.911407,512.335876 280.000000,513.000000 
	C264.979095,513.000000 249.958206,513.000000 234.288635,512.608643 
	C223.970810,510.819336 214.238754,509.757568 204.644073,507.961792 
	C172.736206,501.989838 143.447403,489.408997 116.332253,471.763184 
	C95.354996,458.111786 76.961754,441.506561 60.770355,422.368500 
	C44.918133,403.631287 32.042454,383.126923 22.234331,360.653503 
	C12.598807,338.575500 5.715802,315.742676 2.962418,291.737640 
	C2.510980,287.801849 1.664110,283.911407 0.999999,280.000000 
M326.470123,140.110229 
	C300.316284,126.751213 277.281006,109.211739 257.057007,87.695335 
	C254.158005,90.625984 251.644119,93.260414 249.032120,95.793686 
	C213.471695,130.282288 171.557739,152.778183 122.851448,162.246613 
	C118.562134,163.080444 116.967812,165.005219 115.847160,169.011993 
	C106.668106,201.830933 104.561142,235.064484 112.075745,268.289398 
	C129.871262,346.970154 177.556061,399.166901 253.801270,425.293854 
	C255.685822,425.939606 258.134613,425.945862 260.045502,425.357758 
	C293.138245,415.172424 322.051270,397.809692 346.177368,373.065247 
	C384.272797,333.993439 404.417480,286.992584 406.078796,232.319656 
	C406.647156,213.616058 405.033264,195.092789 399.989288,176.266129 
	C400.642822,174.968811 401.143219,173.562469 401.975983,172.392761 
	C405.931244,166.837173 410.045685,161.394440 413.974884,155.820831 
	C420.221802,146.959564 422.539337,137.033325 420.506500,126.453163 
	C417.351532,110.032471 407.410400,99.200562 391.231659,95.272675 
	C374.819214,91.288055 360.972260,96.612030 350.578003,109.932495 
	C343.621765,118.847107 337.180145,128.162354 330.440125,137.247772 
	C329.494110,138.522964 328.159088,139.509567 326.470123,140.110229 
z"/>
<path fill="#FFFFFF" opacity="1.000000" stroke="none" 
	d="
M233.531342,1.000000 
	C230.088593,1.664113 226.198135,2.510985 222.262329,2.962424 
	C198.257278,5.715823 175.424438,12.598804 153.346405,22.234375 
	C130.872986,32.042515 110.368530,44.918171 91.631355,60.770466 
	C72.493324,76.961899 55.890667,95.356804 42.236053,116.332031 
	C24.585329,143.445801 12.014901,172.738510 6.038435,204.644455 
	C4.241278,214.238708 3.180664,223.970917 1.391318,233.819977 
	C1.000000,156.406281 1.000000,78.812576 1.000000,1.000000 
	C78.354088,1.000000 155.708389,1.000000 233.531342,1.000000 
z"/>
<path fill="#FFFFFF" opacity="1.000000" stroke="none" 
	d="
M513.000000,233.531342 
	C512.335876,230.088593 511.489044,226.198151 511.037598,222.262360 
	C508.284210,198.257324 501.401184,175.424500 491.765656,153.346497 
	C481.957520,130.873077 469.081909,110.368614 453.229614,91.631424 
	C437.038208,72.493401 418.644928,55.888218 397.667694,42.236790 
	C370.552551,24.590977 341.263702,12.010225 309.355865,6.038237 
	C299.761200,4.242465 290.029175,3.180676 280.180054,1.391323 
	C357.593719,1.000000 435.187408,1.000000 513.000000,1.000000 
	C513.000000,78.354088 513.000000,155.708389 513.000000,233.531342 
z"/>
<path fill="#FFFFFF" opacity="1.000000" stroke="none" 
	d="
M0.999999,280.468658 
	C1.664110,283.911407 2.510980,287.801849 2.962418,291.737640 
	C5.715802,315.742676 12.598807,338.575500 22.234331,360.653503 
	C32.042454,383.126923 44.918133,403.631287 60.770355,422.368500 
	C76.961754,441.506561 95.354996,458.111786 116.332253,471.763184 
	C143.447403,489.408997 172.736206,501.989838 204.644073,507.961792 
	C214.238754,509.757568 223.970810,510.819336 233.819977,512.608643 
	C156.406296,513.000000 78.812592,513.000000 1.000000,513.000000 
	C1.000000,435.645905 1.000000,358.291626 0.999999,280.468658 
z"/>
<path fill="#FFFFFF" opacity="1.000000" stroke="none" 
	d="
M280.468658,513.000000 
	C283.911407,512.335876 287.801819,511.488953 291.737610,511.037537 
	C315.742676,508.284149 338.575531,501.401215 360.653534,491.765686 
	C383.126892,481.957550 403.631317,469.081909 422.368469,453.229614 
	C441.506500,437.038208 458.111755,418.644989 471.763214,397.667755 
	C489.409058,370.552612 501.989807,341.263763 507.961823,309.355957 
	C509.757599,299.761292 510.819305,290.029175 512.608643,280.180023 
	C513.000000,357.593719 513.000000,435.187408 513.000000,513.000000 
	C435.645905,513.000000 358.291626,513.000000 280.468658,513.000000 
z"/>
<path fill="#F8FFF2" opacity="1.000000" stroke="none" 
	d="
M399.899963,176.994720 
	C405.033264,195.092789 406.647156,213.616058 406.078796,232.319656 
	C404.417480,286.992584 384.272797,333.993439 346.177368,373.065247 
	C322.051270,397.809692 293.138245,415.172424 260.045502,425.357758 
	C258.134613,425.945862 255.685822,425.939606 253.801270,425.293854 
	C177.556061,399.166901 129.871262,346.970154 112.075745,268.289398 
	C104.561142,235.064484 106.668106,201.830933 115.847160,169.011993 
	C116.967812,165.005219 118.562134,163.080444 122.851448,162.246613 
	C171.557739,152.778183 213.471695,130.282288 249.032120,95.793686 
	C251.644119,93.260414 254.158005,90.625984 257.057007,87.695335 
	C277.281006,109.211739 300.316284,126.751213 326.710449,140.692764 
	C326.607483,142.020462 326.377960,142.848465 325.904480,143.498840 
	C308.086487,167.975021 290.260284,192.445251 272.397552,216.888809 
	C268.441833,222.301834 264.346436,227.612762 259.975464,233.422440 
	C252.226288,223.741516 245.210770,214.696732 237.884140,205.911407 
	C231.845291,198.670258 226.209000,190.805969 219.033630,184.859772 
	C204.013947,172.413010 180.947159,174.837967 167.307800,189.193481 
	C153.882950,203.323257 153.488297,226.315811 165.745071,241.351761 
	C185.482742,265.564941 204.781754,290.135254 224.347946,314.488953 
	C229.417404,320.798767 233.924057,327.723572 241.383286,331.693695 
	C261.001556,342.135529 281.030640,337.545563 294.321289,319.481567 
	C303.588165,306.886475 312.756104,294.218628 321.990265,281.599426 
	C346.744904,247.770432 371.502136,213.943314 396.309875,180.153305 
	C397.231262,178.898315 398.691071,178.038620 399.899963,176.994720 
z"/>
<path fill="#FDFEFC" opacity="1.000000" stroke="none" 
	d="
M399.944641,176.630432 
	C398.691071,178.038620 397.231262,178.898315 396.309875,180.153305 
	C371.502136,213.943314 346.744904,247.770432 321.990265,281.599426 
	C312.756104,294.218628 303.588165,306.886475 294.321289,319.481567 
	C281.030640,337.545563 261.001556,342.135529 241.383286,331.693695 
	C233.924057,327.723572 229.417404,320.798767 224.347946,314.488953 
	C204.781754,290.135254 185.482742,265.564941 165.745071,241.351761 
	C153.488297,226.315811 153.882950,203.323257 167.307800,189.193481 
	C180.947159,174.837967 204.013947,172.413010 219.033630,184.859772 
	C226.209000,190.805969 231.845291,198.670258 237.884140,205.911407 
	C245.210770,214.696732 252.226288,223.741516 259.975464,233.422440 
	C264.346436,227.612762 268.441833,222.301834 272.397552,216.888809 
	C290.260284,192.445251 308.086487,167.975021 325.904480,143.498840 
	C326.377960,142.848465 326.607483,142.020462 326.977448,140.952530 
	C328.159088,139.509567 329.494110,138.522964 330.440125,137.247772 
	C337.180145,128.162354 343.621765,118.847107 350.578003,109.932495 
	C360.972260,96.612030 374.819214,91.288055 391.231659,95.272675 
	C407.410400,99.200562 417.351532,110.032471 420.506500,126.453163 
	C422.539337,137.033325 420.221802,146.959564 413.974884,155.820831 
	C410.045685,161.394440 405.931244,166.837173 401.975983,172.392761 
	C401.143219,173.562469 400.642822,174.968811 399.944641,176.630432 
M189.037369,192.216873 
	C170.415329,199.360733 165.373230,217.838699 177.814392,233.274658 
	C183.875351,240.794601 189.899399,248.344360 195.929932,255.888794 
	C211.005875,274.749329 226.010910,293.667053 241.169662,312.460754 
	C252.591019,326.620880 271.227570,326.699677 281.709869,312.410126 
	C321.889771,257.636536 361.974030,202.792282 401.853271,147.799866 
	C404.534912,144.101959 406.196289,139.052643 406.642914,134.467331 
	C407.716980,123.440483 400.614288,113.506706 390.142242,109.823402 
	C379.337585,106.023087 368.500244,109.608772 361.183838,119.601906 
	C335.512390,154.665161 309.889191,189.763763 284.248383,224.849426 
	C276.420502,235.560760 268.594849,246.273712 260.564911,257.264160 
	C245.574921,238.528244 230.883087,220.214951 216.250793,201.854187 
	C209.386688,193.241028 200.731110,189.662186 189.037369,192.216873 
z"/>
<path fill="#45AF02" opacity="1.000000" stroke="none" 
	d="
M189.430756,192.127762 
	C200.731110,189.662186 209.386688,193.241028 216.250793,201.854187 
	C230.883087,220.214951 245.574921,238.528244 260.564911,257.264160 
	C268.594849,246.273712 276.420502,235.560760 284.248383,224.849426 
	C309.889191,189.763763 335.512390,154.665161 361.183838,119.601906 
	C368.500244,109.608772 379.337585,106.023087 390.142242,109.823402 
	C400.614288,113.506706 407.716980,123.440483 406.642914,134.467331 
	C406.196289,139.052643 404.534912,144.101959 401.853271,147.799866 
	C361.974030,202.792282 321.889771,257.636536 281.709869,312.410126 
	C271.227570,326.699677 252.591019,326.620880 241.169662,312.460754 
	C226.010910,293.667053 211.005875,274.749329 195.929932,255.888794 
	C189.899399,248.344360 183.875351,240.794601 177.814392,233.274658 
	C165.373230,217.838699 170.415329,199.360733 189.430756,192.127762 
z"/>
</svg>