<svg version="1.1" id="Layer_1" xmlns="http://www.w3.org/2000/svg" xmlns:xlink="http://www.w3.org/1999/xlink" x="0px" y="0px"
	 width="100%" viewBox="0 0 500 500" xml:space="preserve">
<path fill="#44AF01" opacity="1.000000" stroke="none" 
	d="
M225.000000,1.000003 
	C241.687561,1.000000 258.375122,1.000000 275.471863,1.420884 
	C276.722412,2.221684 277.530884,2.811759 278.410126,2.949198 
	C287.796631,4.416487 297.359131,5.131690 306.557129,7.359095 
	C330.967621,13.270394 354.341766,21.924194 376.034302,34.919712 
	C397.755951,47.932663 417.503571,63.218143 434.599487,81.996857 
	C452.061096,101.177299 466.541595,122.240112 477.451416,145.798737 
	C488.755310,170.208359 496.292053,195.633163 499.087250,222.431900 
	C499.182434,223.344513 500.338440,224.146469 501.000000,225.000000 
	C501.000000,242.020889 501.000000,259.041779 500.583496,276.451782 
	C499.786102,277.682129 499.208679,278.488861 499.054016,279.369751 
	C497.130981,290.323975 495.862854,301.431152 493.277649,312.223816 
	C486.316132,341.286224 473.943726,367.989105 456.983490,392.620148 
	C442.913696,413.053497 426.328094,431.148621 406.882721,446.482056 
	C387.434784,461.817596 366.305511,474.423981 343.138062,483.447235 
	C322.922821,491.320770 302.091278,496.660706 280.518036,499.104004 
	C279.618652,499.205872 278.836670,500.344421 278.000000,501.000000 
	C260.312439,501.000000 242.624878,501.000000 224.548828,500.584045 
	C218.943451,499.132507 213.762421,497.839966 208.503448,497.106049 
	C186.534943,494.040253 165.677139,487.158325 145.740891,477.804443 
	C114.165634,462.989624 86.598076,442.675140 63.545406,416.239136 
	C51.481350,402.404480 40.634930,387.791107 31.948671,371.686676 
	C16.242390,342.567108 5.586355,311.792480 2.909990,278.557739 
	C2.837673,277.659729 1.661443,276.850586 0.999997,276.000000 
	C1.000000,259.312439 1.000000,242.624878 1.417819,225.523224 
	C2.217325,224.269165 2.829764,223.459198 2.943398,222.584427 
	C3.704372,216.726410 3.903407,210.757736 5.126245,205.003799 
	C10.804235,178.286591 19.207825,152.530029 32.994041,128.754089 
	C48.429417,102.133965 67.308258,78.505028 91.322395,58.948822 
	C110.856552,43.040928 131.662720,29.466135 155.040726,19.996384 
	C176.725189,11.212641 199.058258,4.941387 222.470428,2.909894 
	C223.362152,2.832518 224.158966,1.661435 225.000000,1.000003 
M334.030640,118.521004 
	C330.440521,123.434105 326.590607,128.183167 323.349426,133.316589 
	C321.097015,136.884003 319.219330,137.440765 315.432983,135.292236 
	C293.196167,122.674171 272.587677,107.967339 254.858521,89.421455 
	C253.640717,88.147568 252.305115,86.986305 251.166046,85.906967 
	C244.403030,92.124222 238.055069,97.961571 231.705292,103.796944 
	C217.790573,116.584465 202.077499,126.898849 185.514969,135.734787 
	C164.151779,147.131821 141.206726,154.374725 117.469292,159.119125 
	C116.248276,159.363174 114.483299,160.288315 114.189400,161.263428 
	C108.849136,178.981293 105.829597,197.138977 105.098877,215.606903 
	C104.805275,223.027161 105.710037,230.491226 105.987747,237.938416 
	C106.573013,253.633087 109.793510,268.874420 114.476051,283.766052 
	C120.926361,304.279602 130.704559,323.163086 143.144836,340.751648 
	C155.562836,358.308624 170.688263,373.193237 187.885101,385.807159 
	C203.923157,397.571075 221.276031,407.124817 240.414383,413.335419 
	C246.629684,415.352325 252.170120,416.507874 258.477509,414.271606 
	C284.500824,405.045197 308.336975,392.080048 328.929993,373.533661 
	C347.659241,356.665833 362.949036,337.046631 374.604126,314.707764 
	C387.762268,289.488007 394.988831,262.448975 396.853119,234.182205 
	C398.182556,214.025543 396.390289,193.927200 391.665344,174.176941 
	C391.324554,172.752502 391.304230,170.777908 392.041504,169.653748 
	C394.742157,165.536102 397.652039,161.525543 400.795288,157.733368 
	C417.053864,138.118225 413.836670,112.474449 395.859161,99.411827 
	C384.516724,91.170288 372.189117,89.524849 358.959686,94.567055 
	C347.464630,98.948219 341.136749,108.586777 334.030640,118.521004 
z"/>
<path fill="#000000" opacity="1.000000" stroke="none" 
	d="
M501.000000,224.531342 
	C500.338440,224.146469 499.182434,223.344513 499.087250,222.431900 
	C496.292053,195.633163 488.755310,170.208359 477.451416,145.798737 
	C466.541595,122.240112 452.061096,101.177299 434.599487,81.996857 
	C417.503571,63.218143 397.755951,47.932663 376.034302,34.919712 
	C354.341766,21.924194 330.967621,13.270394 306.557129,7.359095 
	C297.359131,5.131690 287.796631,4.416487 278.410126,2.949198 
	C277.530884,2.811759 276.722412,2.221684 275.940552,1.420884 
	C350.926880,1.000000 425.853729,1.000000 501.000000,1.000000 
	C501.000000,75.354080 501.000000,149.708389 501.000000,224.531342 
z"/>
<path fill="#000000" opacity="1.000000" stroke="none" 
	d="
M224.531342,1.000003 
	C224.158966,1.661435 223.362152,2.832518 222.470428,2.909894 
	C199.058258,4.941387 176.725189,11.212641 155.040726,19.996384 
	C131.662720,29.466135 110.856552,43.040928 91.322395,58.948822 
	C67.308258,78.505028 48.429417,102.133965 32.994041,128.754089 
	C19.207825,152.530029 10.804235,178.286591 5.126245,205.003799 
	C3.903407,210.757736 3.704372,216.726410 2.943398,222.584427 
	C2.829764,223.459198 2.217325,224.269165 1.417819,225.054565 
	C1.000000,150.406296 1.000000,75.812576 1.000000,1.000000 
	C75.354088,1.000000 149.708389,1.000000 224.531342,1.000003 
z"/>
<path fill="#000000" opacity="1.000000" stroke="none" 
	d="
M278.468658,501.000000 
	C278.836670,500.344421 279.618652,499.205872 280.518036,499.104004 
	C302.091278,496.660706 322.922821,491.320770 343.138062,483.447235 
	C366.305511,474.423981 387.434784,461.817596 406.882721,446.482056 
	C426.328094,431.148621 442.913696,413.053497 456.983490,392.620148 
	C473.943726,367.989105 486.316132,341.286224 493.277649,312.223816 
	C495.862854,301.431152 497.130981,290.323975 499.054016,279.369751 
	C499.208679,278.488861 499.786102,277.682129 500.583496,276.920471 
	C501.000000,351.593536 501.000000,426.187073 501.000000,501.000000 
	C426.979248,501.000000 352.958282,501.000000 278.468658,501.000000 
z"/>
<path opacity="1.000000" stroke="none" 
	d="
M0.999997,276.468658 
	C1.661443,276.850586 2.837673,277.659729 2.909990,278.557739 
	C5.586355,311.792480 16.242390,342.567108 31.948671,371.686676 
	C40.634930,387.791107 51.481350,402.404480 63.545406,416.239136 
	C86.598076,442.675140 114.165634,462.989624 145.740891,477.804443 
	C165.677139,487.158325 186.534943,494.040253 208.503448,497.106049 
	C213.762421,497.839966 218.943451,499.132507 224.080170,500.584045 
	C149.739304,501.000000 75.478615,501.000000 1.000000,501.000000 
	C1.000000,426.312592 1.000000,351.624939 0.999997,276.468658 
z"/>
<path opacity="1.000000" stroke="none" 
	d="
M334.263062,118.243210 
	C341.136749,108.586777 347.464630,98.948219 358.959686,94.567055 
	C372.189117,89.524849 384.516724,91.170288 395.859161,99.411827 
	C413.836670,112.474449 417.053864,138.118225 400.795288,157.733368 
	C397.652039,161.525543 394.742157,165.536102 392.041504,169.653748 
	C391.304230,170.777908 391.324554,172.752502 391.665344,174.176941 
	C396.390289,193.927200 398.182556,214.025543 396.853119,234.182205 
	C394.988831,262.448975 387.762268,289.488007 374.604126,314.707764 
	C362.949036,337.046631 347.659241,356.665833 328.929993,373.533661 
	C308.336975,392.080048 284.500824,405.045197 258.477509,414.271606 
	C252.170120,416.507874 246.629684,415.352325 240.414383,413.335419 
	C221.276031,407.124817 203.923157,397.571075 187.885101,385.807159 
	C170.688263,373.193237 155.562836,358.308624 143.144836,340.751648 
	C130.704559,323.163086 120.926361,304.279602 114.476051,283.766052 
	C109.793510,268.874420 106.573013,253.633087 105.987747,237.938416 
	C105.710037,230.491226 104.805275,223.027161 105.098877,215.606903 
	C105.829597,197.138977 108.849136,178.981293 114.189400,161.263428 
	C114.483299,160.288315 116.248276,159.363174 117.469292,159.119125 
	C141.206726,154.374725 164.151779,147.131821 185.514969,135.734787 
	C202.077499,126.898849 217.790573,116.584465 231.705292,103.796944 
	C238.055069,97.961571 244.403030,92.124222 251.166046,85.906967 
	C252.305115,86.986305 253.640717,88.147568 254.858521,89.421455 
	C272.587677,107.967339 293.196167,122.674171 315.432983,135.292236 
	C319.219330,137.440765 321.097015,136.884003 323.349426,133.316589 
	C326.590607,128.183167 330.440521,123.434105 334.263062,118.243210 
M206.983765,269.466492 
	C215.040237,279.451782 223.182068,289.369751 231.123734,299.445557 
	C236.577515,306.364929 241.856308,313.470093 251.451767,314.678802 
	C263.265076,316.166931 270.981659,310.709961 277.768982,301.106720 
	C297.018188,273.871582 317.141296,247.254547 336.884186,220.367645 
	C354.990082,195.710129 372.989624,170.974274 391.159424,146.364059 
	C397.946350,137.171417 398.860535,127.694916 393.987579,118.748505 
	C386.757660,105.474884 365.604645,100.919838 355.612183,113.960953 
	C346.022827,126.475975 336.781830,139.259430 327.465607,151.981949 
	C306.602692,180.473175 285.798157,209.007202 264.943939,237.504852 
	C261.512665,242.193741 257.949951,246.786453 254.224655,251.719345 
	C249.658020,246.048340 245.728638,241.223465 241.858307,236.351685 
	C231.856735,223.762222 221.875381,211.156662 211.897568,198.548355 
	C206.302017,191.477600 199.270416,186.686417 190.034668,187.090149 
	C180.832779,187.492386 173.877533,192.246521 169.825073,200.639923 
	C165.719131,209.144119 166.320831,217.544586 171.841995,225.186859 
	C175.985367,230.921997 180.782898,236.180389 185.181656,241.736160 
	C192.332733,250.768250 199.395828,259.869965 206.983765,269.466492 
z"/>
<path fill="#44AF01" opacity="1.000000" stroke="none" 
	d="
M206.739929,269.204407 
	C199.395828,259.869965 192.332733,250.768250 185.181656,241.736160 
	C180.782898,236.180389 175.985367,230.921997 171.841995,225.186859 
	C166.320831,217.544586 165.719131,209.144119 169.825073,200.639923 
	C173.877533,192.246521 180.832779,187.492386 190.034668,187.090149 
	C199.270416,186.686417 206.302017,191.477600 211.897568,198.548355 
	C221.875381,211.156662 231.856735,223.762222 241.858307,236.351685 
	C245.728638,241.223465 249.658020,246.048340 254.224655,251.719345 
	C257.949951,246.786453 261.512665,242.193741 264.943939,237.504852 
	C285.798157,209.007202 306.602692,180.473175 327.465607,151.981949 
	C336.781830,139.259430 346.022827,126.475975 355.612183,113.960953 
	C365.604645,100.919838 386.757660,105.474884 393.987579,118.748505 
	C398.860535,127.694916 397.946350,137.171417 391.159424,146.364059 
	C372.989624,170.974274 354.990082,195.710129 336.884186,220.367645 
	C317.141296,247.254547 297.018188,273.871582 277.768982,301.106720 
	C270.981659,310.709961 263.265076,316.166931 251.451767,314.678802 
	C241.856308,313.470093 236.577515,306.364929 231.123734,299.445557 
	C223.182068,289.369751 215.040237,279.451782 206.739929,269.204407 
z"/>
</svg>